<?xml version="1.0" encoding="UTF-8"?>
<svg width="535px" height="243px" viewBox="0 0 535 243" version="1.1" xmlns="http://www.w3.org/2000/svg" xmlns:xlink="http://www.w3.org/1999/xlink">
    <title>KidX logo v3 tagline</title>
    <g id="Mobile" stroke="none" stroke-width="1" fill="none" fill-rule="evenodd">
        <g id="Logo-Changes" transform="translate(-41.000000, -499.000000)" fill-rule="nonzero">
            <g id="KidX-logo-v3-tagline" transform="translate(41.930165, 499.000000)">
                <g id="Group">
                    <path d="M6.13464036,169.998864 C4.47473051,169.989958 3.05195064,169.378958 1.85312687,168.165749 C0.654303088,166.95254 0.0614781425,165.519546 0.0702607342,163.857977 L0,16.070442 C0.00878259178,14.4132685 0.619172721,12.9846706 1.83117039,11.7846484 C3.04316805,10.5846262 4.47473051,9.99120863 6.13464036,9.99889379 L46.7078077,9.99889379 C48.3633262,10.0087914 49.7904974,10.6241874 50.9893212,11.8330009 C52.188145,13.0462102 52.7809699,14.4835994 52.7721873,16.140773 L52.269595,85.6719148 C52.2652037,86.4323685 53.2576366,86.718088 53.6572445,86.0719222 L72.3290346,55.8867483 C72.6364253,55.2889351 73.3170762,54.4977117 74.3797698,53.5218694 C75.4380721,52.5504229 76.9442866,52.0625018 78.9071959,52.0756888 L124.143541,51.9609614 C125.720016,51.9697528 127.314057,52.4884437 128.40749,53.631322 C129.413096,54.6818909 129.913704,55.9478484 129.904921,57.4247988 C129.90053,58.0314034 129.786356,58.6687778 129.553618,59.3457134 C129.32527,60.022649 129.057401,60.5149658 128.754402,60.8094768 L97.8775941,104.705234 C97.7019423,104.955788 97.6931597,105.28986 97.8556376,105.549206 L133.864264,161.660134 C134.457089,162.570041 134.755697,163.554675 134.751997,164.605243 C134.742523,166.090985 134.22435,167.348151 133.201178,168.385533 C132.09018,169.510829 130.482966,170.007541 128.9021,169.998864 L81.7880322,169.998864 C79.5309061,169.985563 77.8709963,169.409728 76.8258678,168.275641 C75.8378263,167.203094 75.1835232,166.50418 74.8585673,166.170108 C74.8190456,166.126151 74.7883065,166.090985 74.7575675,166.038237 L53.4113319,129.584815 C53.0248979,128.929858 52.0192911,129.202391 52.0148998,129.962844 L51.798067,163.928308 C51.7892844,165.589877 51.174503,167.014079 49.9668966,168.214101 C48.754899,169.414124 47.3189452,170.007541 45.6634267,169.998864 L6.13464036,169.998864 Z" id="Path" fill="#868FE2"></path>
                    <path d="M264.131621,170 C257.664042,170 251.608634,169.0716 245.965397,167.223437 C240.326545,165.375273 235.358568,162.41303 231.074619,158.336707 C226.786285,154.264702 223.361757,148.970664 220.809804,142.445956 C218.249081,135.929884 216.745095,128.001781 216.29346,118.670283 C216.139992,115.263272 216.069835,112.301028 216.069835,109.783553 C216.069835,107.266078 216.144377,104.377243 216.29346,101.117049 C216.596011,92.3771355 218.021071,84.7815292 220.581794,78.3388659 C223.138132,71.8918846 226.558275,66.5978463 230.846609,62.4481149 C235.134943,58.3027015 240.133614,55.1936415 245.851393,53.1166167 C251.564786,51.0439101 257.659657,50.0032386 264.127236,50.0032386 C270.445732,50.0032386 276.124047,50.9316385 281.162182,52.7798019 C285.643447,54.429331 289.554688,56.6315818 292.904675,59.3865544 C293.395772,59.7924594 294.136803,59.468599 294.136803,58.8338326 L294.136803,16.002213 C294.136803,14.3742747 294.737521,12.9665614 295.943341,11.7790732 C297.144776,10.5959032 298.57422,10 300.231674,10 L341.974964,10 C343.632418,10 345.057478,10.591585 346.263298,11.7790732 C347.464733,12.9665614 348.069835,14.3742747 348.069835,16.002213 L348.069835,163.997787 C348.069835,165.630043 347.469118,167.033439 346.263298,168.220927 C345.057478,169.408415 343.628034,170 341.974964,170 L303.616739,170 C301.959285,170 300.529841,169.408415 299.328406,168.220927 C298.122586,167.037757 297.521868,165.630043 297.521868,163.997787 L297.521868,158.535341 C297.521868,157.86603 296.706296,157.555124 296.228353,158.030119 C292.852057,161.406904 288.769809,164.174831 283.985993,166.3339 C278.57515,168.777967 271.954103,170 264.131621,170 Z M282.009557,131 C284.943503,131 287.228466,130.466368 288.850926,129.38565 C290.473385,128.309417 291.636147,126.7713 292.330199,124.7713 C293.024251,122.7713 293.447893,120.38565 293.605632,117.618834 C293.916603,114.080717 294.069835,111.197309 294.069835,108.964126 C294.069835,106.735426 293.912096,103.923767 293.605632,100.538117 C293.447893,98.0807175 292.947635,96 292.10035,94.309417 C291.248559,92.6188341 290.013688,91.309417 288.391229,90.3856502 C286.76877,89.4618834 284.641546,89 282.014063,89 C279.228842,89 277.029509,89.5426009 275.402543,90.6143498 C273.780084,91.690583 272.617321,93.2331839 271.92327,95.2286996 C271.224711,97.2286996 270.724453,99.6143498 270.417988,102.381166 C269.953785,107.457399 269.953785,112.538117 270.417988,117.61435 C270.724453,120.381166 271.229218,122.7713 271.92327,124.766816 C272.617321,126.766816 273.780084,128.304933 275.402543,129.381166 C277.025002,130.461883 279.224335,131 282.009557,131 Z" id="Shape" fill="#F58B58"></path>
                    <path d="M392.992901,169.999518 C391.429599,169.986955 390.103428,169.459296 389.018778,168.408166 C387.934128,167.361225 387.39839,166.092331 387.40613,164.597298 C387.411564,164.299967 387.490607,163.851876 387.653085,163.257213 C387.811172,162.66255 388.048302,162.143267 388.364475,161.695176 L427.049134,109.137989 C427.229177,108.895098 427.233568,108.576828 427.062308,108.32975 L393.90629,60.1982994 C393.752595,59.900968 393.563769,59.4905668 393.331031,58.9670959 C393.098292,58.443625 392.988509,57.886652 392.992901,57.2878013 C393.006075,55.8011439 393.559378,54.5364382 394.661593,53.497872 C395.759417,52.4634935 397.094371,51.9483981 398.657672,51.9605626 L441.63702,51.9605626 C443.981972,51.9777125 445.694577,52.5137467 446.783619,53.5606885 C447.868269,54.6160058 448.645528,55.512188 449.106614,56.2617983 L461.889676,75.8703663 C462.183892,76.3058941 462.846978,76.3100819 463.149978,75.8787419 L476.275479,56.1571041 C476.749739,55.4158693 477.535781,54.5280627 478.642387,53.4894964 C479.740211,52.4551179 481.465991,51.9442104 483.806551,51.9605626 L524.470929,51.9605626 C526.086926,51.9735247 527.698532,52.5095589 528.813921,53.6276928 C529.850267,54.6620712 530.364048,55.8346461 530.355266,57.1412294 C530.350875,57.886652 530.263049,58.5190048 530.109353,59.0424757 C529.946875,59.5659466 529.709745,59.97216 529.393572,60.2653037 L494.925395,108.564265 C494.745351,108.811343 494.745351,109.137989 494.925395,109.385067 L532.937187,161.766368 C533.244577,162.218646 533.472925,162.704427 533.62662,163.223711 C533.775924,163.747181 533.854967,164.228775 533.851946,164.676866 C533.837402,166.247278 533.21823,167.562237 532.001841,168.62593 C530.904017,169.584929 529.402193,170.012081 527.913544,169.999518 L483.188634,170.000861 C481.155464,169.987664 479.636075,169.531198 478.630468,168.62664 C477.629253,167.738833 476.825646,166.922219 476.210864,166.180984 C476.193299,166.164233 476.180125,166.143294 476.166951,166.122355 L461.450546,144.239853 C461.160721,143.825264 460.523983,143.816889 460.216592,144.218914 L443.880972,166.247278 C443.406712,166.841941 442.660192,167.616678 441.63702,168.579865 C440.613848,169.543051 439.006634,170.012081 436.82416,169.999518 L392.992901,169.999518 Z" id="Path" fill="#5FC463"></path>
                    <path d="M150.432623,168.186321 C149.2338,166.974231 148.640975,165.534874 148.640975,163.86825 L148.640975,58.097168 C148.640975,56.430544 149.2338,54.9956431 150.432623,53.7790967 C151.627056,52.5670065 153.041053,51.9609614 154.687789,51.9609614 L194.775929,51.9609614 C196.418274,51.9609614 197.832271,52.5670065 199.031095,53.7790967 C200.225527,54.9956431 200.822744,56.430544 200.822744,58.097168 L200.822744,163.863793 C200.822744,165.534874 200.225527,166.969775 199.031095,168.181865 C197.832271,169.393955 196.418274,170.000024 194.775929,170.000024 L154.687789,170.000024 C153.041053,170.004456 151.627056,169.398411 150.432623,168.186321 Z M155.807569,39.2314951 C154.160834,39.2314951 152.746836,38.6380775 151.552404,37.4380553 C150.35358,36.2424288 149.760755,34.8226223 149.760755,33.1786359 L149.760755,6.05285925 C149.760755,4.40887279 150.35358,2.98906629 151.552404,1.79343978 C152.746836,0.597813259 154.160834,0 155.807569,0 L193.656149,0 C195.298493,0 196.716882,0.597813259 197.911314,1.79343978 C199.105747,2.99346198 199.702963,4.40887279 199.702963,6.05285925 L199.702963,33.1786359 C199.702963,34.827018 199.105747,36.2424288 197.911314,37.4380553 C196.716882,38.6380775 195.298493,39.2314951 193.656149,39.2314951 L155.807569,39.2314951 Z" id="Shape" fill="#4BC1EF"></path>
                </g>
                <g id="Group" transform="translate(62.069835, 195.998255)" fill="#333333">
                    <path d="M0,1.75613629 L2.76481097,1.74762027 L2.80517318,15.6457632 L2.89800625,15.6457632 C4.50442196,13.0185714 6.75259672,11.2131753 10.9906281,11.2004013 C17.8522028,11.1791113 21.8722783,16.3185287 21.896595,24.5748091 C21.920713,33.2739224 17.5131603,38.1450853 11.0188817,38.1664414 C6.96651641,38.1791493 4.61339991,36.3396893 2.94644089,33.529403 L2.85360782,33.529403 L2.86571648,37.7065103 L0.10090551,37.7150263 L0,1.75613629 Z M19.0389388,24.5833251 C19.0186705,17.7321878 15.8300564,13.8531412 10.6273683,13.8701174 C5.05334794,13.8872053 2.71637633,17.8812182 2.73642791,24.8260316 C2.75673853,31.724007 5.11389124,35.5093774 10.7807447,35.4881767 C15.5717383,35.4753133 19.0590327,31.7708451 19.0389388,24.5833251 Z" id="Shape"></path>
                    <path d="M29.4603727,11.6262023 L32.2251837,11.6176862 L32.2695821,27.7981222 C32.285727,32.8992176 33.8114183,35.4199592 37.7265521,35.4114432 C42.2390465,35.3986692 45.270248,32.0859378 45.2541031,26.8869082 L45.2097047,11.5836222 L47.9745156,11.5751061 L48.0471676,37.570254 L45.2823566,37.57877 L45.270248,33.4016627 L45.1774149,33.4016627 C43.5266008,36.224723 41.1855929,38.0769571 37.359256,38.0897941 C31.6964388,38.1067632 29.520916,34.6662915 29.5047711,28.6412081 L29.4603727,11.6262023 Z" id="Path"></path>
                    <polygon id="Path" points="63.291972 37.5148999 53.1772037 11.5538161 56.2164777 11.5453001 64.6158523 33.8700438 72.1999105 11.494204 75.2391844 11.4856879 62.9044949 46.993229 59.8652209 47.001745"></polygon>
                    <path d="M110.58033,33.090828 C108.424989,35.9138883 105.296918,37.8683147 101.014488,37.88115 C94.8875053,37.8981207 91.3315951,34.3639729 91.3153871,28.7774644 C91.2993054,23.7232072 94.3789415,20.7042785 97.7330407,18.2133429 C94.4071951,14.0447516 93.4788644,12.0562612 93.470792,9.28855505 C93.4586833,4.33223202 96.4858486,0.968404535 101.276842,0.955573944 C106.47953,0.938598469 109.25645,4.770807 109.264522,8.70520775 C109.276631,13.1761177 105.36957,15.8118256 101.555341,18.4943715 C103.589596,20.9171789 106.36248,24.0681059 110.104056,28.3814695 C111.15751,25.9501461 111.653965,23.0334096 111.738725,19.8739666 L114.592333,19.8654506 C114.556007,23.4123725 113.785089,27.3978694 112.089877,30.7106007 C113.845633,32.6948331 115.694221,34.879192 117.82131,37.3488375 L114.273472,37.3616115 L110.58033,33.090828 Z M99.3515651,20.1038991 C96.5019935,22.3478701 94.1609856,24.8345476 94.1690373,28.57308 C94.1811667,32.7501873 97.2729116,35.0750604 101.232444,35.0623388 C104.457384,35.0537704 106.984058,33.4910809 108.727705,30.9107272 C104.667267,26.2567228 101.571486,22.7694131 99.3515651,20.1038991 Z M106.322134,8.9053342 C106.314045,6.08653193 104.695521,3.51895221 101.333349,3.52744711 C98.1084092,3.53598425 96.2275305,5.87363145 96.235577,9.0841706 C96.2396391,11.2216914 97.0307383,12.869541 100.033686,16.6038153 C103.343387,14.3598443 106.33019,12.2606457 106.322134,8.9053342 Z" id="Shape"></path>
                    <path d="M135.532245,28.9775909 C136.004482,33.5932731 138.680497,35.0878345 142.781297,35.0750604 C146.143468,35.0665444 148.395679,33.6997234 148.387607,30.4423461 C148.367426,22.8119931 133.55046,28.5432739 133.522207,18.1963109 C133.510098,14.1171378 136.404068,10.8001484 141.792423,10.7830407 C146.950712,10.7660843 150.320956,13.6232087 150.6156,19.5503579 L147.761993,19.5588739 C147.382588,15.2838324 145.396767,13.4443723 141.804531,13.4571463 C137.703731,13.4699204 136.282982,15.7564714 136.291054,18.234633 C136.311235,25.3284767 151.1282,20.1805433 151.156487,30.3358959 C151.168563,34.9047401 147.862898,37.7320583 142.381711,37.7491603 C136.347561,37.7661224 133.021716,34.6705495 132.686709,28.9861069 L135.532245,28.9775909 Z" id="Path"></path>
                    <path d="M177.904486,28.8455926 C177.412068,34.2873287 173.416209,37.6554142 167.797791,37.6725359 C160.104754,37.6979943 156.589207,32.2647742 156.568942,24.2469423 C156.548844,16.3738828 160.169334,10.7277623 167.491038,10.7063817 C175.042806,10.6809241 177.960994,16.0673061 177.981175,23.1611499 L177.985211,24.3278445 L159.422633,24.3874567 C159.487213,31.5281385 162.813058,35.0154483 167.418386,35.0026743 C171.377918,34.9899002 174.46159,33.2313423 175.046842,28.8583666 L177.904486,28.8455926 Z M175.119494,21.7134267 C174.92172,16.5654932 172.193235,13.3677281 167.636342,13.380464 C163.168246,13.3932762 160.137044,16.0758222 159.507394,21.7645228 L175.119494,21.7134267 Z" id="Shape"></path>
                    <polygon id="Path" points="184.366475 1.18130501 187.131286 1.17278899 187.232192 37.127421 184.467381 37.135937"></polygon>
                    <polygon id="Path" points="196.341941 1.14298292 199.106752 1.1344669 199.207658 37.0890989 196.442847 37.0976149"></polygon>
                    <polygon id="Path" points="222.13339 1.06208074 224.898201 1.05356472 224.958744 22.7736711 236.946318 10.9789848 240.817054 10.9662108 228.692248 22.8119931 242.132862 36.9571006 238.262126 36.9698747 224.958744 22.8716053 224.999106 37.0124547 222.234295 37.0209708"></polygon>
                    <path d="M247.802674,2.00549024 C247.798957,0.920564629 248.730918,0.00367463916 249.797082,1.08132058e-05 C250.859518,-0.00363125718 251.798935,0.913258733 251.802674,1.99453139 C251.80639,3.079457 250.874429,3.99634699 249.808266,4.00001081 C248.74583,4.00365288 247.806413,3.08676289 247.802674,2.00549024 Z M248.409357,10.9491787 L251.205872,10.9406627 L251.279357,36.9358106 L248.482842,36.9443266 L248.409357,10.9491787 Z" id="Shape"></path>
                    <path d="M275.786867,32.6692851 L275.694034,32.6692851 C274.091655,35.3944111 271.839444,37.3445795 267.601412,37.3574194 C260.739838,37.3786436 256.719762,32.2392261 256.695446,23.9829458 C256.671327,15.2838324 261.07888,10.4126696 267.573159,10.3913795 C271.625524,10.3786055 273.978641,12.0732932 275.6456,14.7856453 L275.738433,14.7856453 L275.69807,0.887502355 L278.462881,0.878986336 L278.563787,36.8336184 L275.798976,36.8421344 L275.786867,32.6692851 Z M275.851576,23.7317232 C275.831266,16.8337478 273.474113,13.0483774 267.80726,13.0653522 C263.016266,13.0824415 259.528972,16.7826517 259.549065,23.9744297 C259.569334,30.825567 262.757948,34.7003556 267.960636,34.6876131 C273.534656,34.6705495 275.871628,30.6765366 275.851576,23.7317232 Z" id="Shape"></path>
                    <path d="M288.440418,28.5006938 C288.912656,33.1163761 291.58867,34.6109374 295.68947,34.5981634 C299.051642,34.5896474 301.303853,33.2228263 301.29578,29.9654491 C301.275599,22.3350961 286.458634,28.0663768 286.43038,17.7194138 C286.418272,13.6402407 289.312242,10.3232514 294.700596,10.3061436 C299.858886,10.2891873 303.22913,13.1463116 303.523774,19.0734608 L300.670166,19.0819768 C300.290761,14.8069353 298.304941,12.9674752 294.712705,12.9802493 C290.611905,12.9930233 289.191155,15.2795744 289.199228,17.7577359 C289.219409,24.8515797 304.036374,19.7036462 304.064661,29.8589988 C304.076736,34.427843 300.771072,37.2551613 295.289884,37.2722632 C289.255735,37.2892254 285.929889,34.1936525 285.594883,28.5092098 L288.440418,28.5006938 Z" id="Path"></path>
                    <path d="M325.605936,28.3857276 C326.078173,33.0014098 328.754188,34.4959711 332.854987,34.4831971 C336.217159,34.4704231 338.46937,33.103602 338.461298,29.8504828 C338.441117,22.2201298 323.624151,27.9514106 323.595898,17.6044476 C323.583789,13.5252745 326.477759,10.2082851 331.866113,10.1954354 C337.024403,10.178479 340.394647,13.0356034 340.689291,18.9627526 L337.835683,18.9712686 C337.456279,14.6962271 335.470458,12.856767 331.878222,12.869541 C327.777422,12.882315 326.356673,15.1688661 326.364745,17.6470277 C326.384926,24.7408714 341.201891,19.592938 341.230178,29.7482906 C341.242253,34.3171348 337.936589,37.144453 332.455402,37.161555 C326.421252,37.1785171 323.095407,34.0829442 322.7604,28.3985016 L325.605936,28.3857276 Z" id="Path"></path>
                    <path d="M348.317748,13.2527619 L344.76991,13.2655359 L344.761838,10.6426021 L348.309675,10.629828 L348.289494,3.92346311 L351.054305,3.91494709 L351.074486,10.621312 L356.830137,10.60428 L356.838209,13.2272138 L351.082559,13.2442459 L351.130993,30.3486699 C351.139066,33.2143103 352.479091,34.427843 354.505274,34.419327 C355.243902,34.415069 355.978494,34.3171348 356.898752,34.1212663 L356.906825,36.697362 C355.942168,36.9443266 355.017874,37.0933849 354.097615,37.0933849 C350.965508,37.1018729 348.382327,35.1687366 348.370219,30.7957609 L348.317748,13.2527619 Z" id="Path"></path>
                    <path d="M361.713963,10.5872479 L364.478774,10.5787319 L364.523173,26.7591679 C364.539318,31.8602633 366.065009,34.3810049 369.980143,34.3724889 C374.492637,34.3597148 377.523839,31.0427255 377.507694,25.8479539 L377.463295,10.5446678 L380.228106,10.5361518 L380.300758,36.5312997 L377.535947,36.5398157 L377.523839,32.3627084 L377.431006,32.3627084 C375.780191,35.1857687 373.439184,37.0380028 369.612847,37.0508398 C363.950029,37.0678089 361.774507,33.6273372 361.758362,27.6022538 L361.713963,10.5872479 Z" id="Path"></path>
                    <path d="M389.261168,13.1250216 L386.036227,13.1335376 L386.028155,10.5106038 L389.253095,10.5020878 L389.240986,6.37181856 C389.228878,1.99884283 391.573922,0.0486744883 394.42753,0.0401584693 C395.254955,0.0359004599 396.086416,0.180672782 396.962276,0.419121313 L396.970348,2.99521705 C396.142923,2.80360662 395.448693,2.70993041 394.802898,2.70993041 C392.962382,2.71418842 391.997725,3.93197913 392.005797,6.80187752 L392.017906,10.4935717 L401.825922,10.4637657 L401.813813,6.33349647 C401.801704,1.96052074 404.146748,0.010352403 407.000356,0.00174497898 C407.827781,-0.00242162541 408.659243,0.142350697 409.535103,0.380799227 L409.543175,2.95689496 C408.711714,2.76528453 408.02152,2.67160833 407.375725,2.67160833 C405.535208,2.67586633 404.570551,3.89365705 404.578624,6.76355543 L404.590733,10.4552496 L409.563356,10.4382176 L409.571429,13.0611514 L404.598805,13.0781835 L404.667421,36.9358106 L401.90261,36.9443266 L401.833994,13.0866995 L392.025979,13.1165056 L392.094594,36.9741327 L389.329783,36.9826487 L389.261168,13.1250216 Z" id="Path"></path>
                </g>
            </g>
        </g>
    </g>
</svg>