<?xml version="1.0" encoding="UTF-8"?>
<svg width="18px" height="18px" viewBox="0 0 18 18" version="1.1" xmlns="http://www.w3.org/2000/svg" xmlns:xlink="http://www.w3.org/1999/xlink">
    <title>search</title>
    <g id="Desktop" stroke="none" stroke-width="1" fill="none" fill-rule="evenodd">
        <g id="KidX-Redesign-02" transform="translate(-1071.000000, -52.000000)" fill-rule="nonzero">
            <g id="Header" transform="translate(40.000000, 40.000000)">
                <g id="Search" transform="translate(242.000000, 1.000000)">
                    <g id="search" transform="translate(789.000000, 11.000000)">
                        <g id="Group-3">
                            <path d="M7.6954235,12.8070271 C7.45850042,12.8342846 7.22157734,12.8479133 6.97747478,12.8479133 C3.50978247,12.8479133 0.695423496,10.1766831 0.695423496,6.88534581 C0.695423496,3.59400854 3.50978247,0.922778304 6.97747478,0.922778304 C7.22157734,0.922778304 7.45850042,0.93640703 7.6954235,0.963664481 C4.56516709,1.29756826 2.13132093,3.82569688 2.13132093,6.88534581 C2.13132093,9.94499473 4.56516709,12.4731234 7.6954235,12.8070271 L7.6954235,12.8070271 Z" id="Path" fill="#D5DBE1"></path>
                            <path d="M6.45750389,12.9188963 C2.89704017,12.9188963 0,10.0209838 0,6.45944813 C0,2.89791241 2.89704017,0 6.45750389,0 C10.0179676,0 12.9150078,2.89791241 12.9150078,6.45944813 C12.9150078,10.0209838 10.0179676,12.9188963 6.45750389,12.9188963 Z M6.45,1.2 C3.55528125,1.2 1.2,3.55599038 1.2,6.45158068 C1.2,9.34717098 3.55528125,11.7031614 6.45,11.7031614 C9.34471875,11.7031614 11.7,9.34717098 11.7,6.45158068 C11.7,3.55599038 9.34471875,1.2 6.45,1.2 Z" id="Shape" fill="#333333"></path>
                        </g>
                        <path d="M13.276704,8.9862452 L14.7029138,8.98327729 C14.7157582,14.6766897 14.7091186,17.867298 14.682995,18.5551023 C14.6786185,18.7019546 14.6552901,18.923936 14.3256519,18.9161444 C14.036911,18.9206062 13.7851123,18.9201328 13.6052364,18.9176435 C13.4333276,18.9154152 13.2800217,18.8496774 13.2567449,18.5774345 C13.1693777,15.9363584 13.1760307,12.7392953 13.276704,8.9862452 Z" id="Path" fill="#333333" transform="translate(13.952560, 13.951396) rotate(-45.000000) translate(-13.952560, -13.951396) "></path>
                    </g>
                </g>
            </g>
        </g>
    </g>
</svg>