<?xml version="1.0" encoding="UTF-8"?>
<svg width="18px" height="22px" viewBox="0 0 18 22" version="1.1" xmlns="http://www.w3.org/2000/svg" xmlns:xlink="http://www.w3.org/1999/xlink">
    <title>shopping bag</title>
    <g id="Desktop" stroke="none" stroke-width="1" fill="none" fill-rule="evenodd">
        <g id="KidX-Redesign-02" transform="translate(-1289.000000, -46.000000)" fill-rule="nonzero">
            <g id="Header" transform="translate(40.000000, 40.000000)">
                <g id="shopping-bag" transform="translate(1249.000000, 6.000000)">
                    <path d="M5.4457394,5.27083333 C4.90472987,5.27083333 4.45541687,5.665 4.38205965,6.19666667 L2.52978972,20.1025 C2.44726284,20.7441667 2.94242411,21.3125 3.59346948,21.3125 L1.75953886,21.3125 C1.10849349,21.3125 0.613332227,20.7441667 0.695859105,20.1025 L2.54812903,6.19666667 C2.62148625,5.665 3.07079925,5.27083333 3.61180879,5.27083333 L5.4457394,5.27083333 Z" id="Path" fill="#D5DBE1"></path>
                    <path d="M15.6634838,22 L1.75678797,22 C1.24970615,22 0.767382399,21.7809167 0.434523992,21.3995833 C0.100748619,21.01825 -0.051467622,20.51225 0.0154708456,20.0099167 L1.86865773,6.10775 C1.98602929,5.23783333 2.73427299,4.58241667 3.61089182,4.58241667 L13.808463,4.58241667 C14.6850819,4.58241667 15.4333255,5.23783333 15.5506971,6.10683333 L17.403884,20.0099167 C17.4708225,20.5113333 17.3186062,21.01825 16.9848308,21.3986667 C16.6528894,21.7809167 16.1705657,22 15.6634838,22 Z M3.61089182,5.95833333 C3.42016304,5.95833333 3.25694321,6.10133333 3.23126818,6.29108333 L1.37808129,20.19325 C1.35882502,20.3426667 1.42668046,20.44625 1.46977783,20.49575 C1.51195823,20.5443333 1.60548869,20.6259167 1.75678797,20.6259167 L15.6634838,20.6259167 C15.8147831,20.6259167 15.9092305,20.5443333 15.950494,20.49575 C15.9935913,20.4471667 16.0614468,20.3426667 16.0421905,20.1941667 L14.1890036,6.29108333 C14.1633286,6.10225 14.0001088,5.95925 13.80938,5.95925 L3.61089182,5.95925 L3.61089182,5.95833333 Z" id="Shape" fill="#333333"></path>
                    <path d="M11.6902732,7.5625 L10.3148252,7.5625 L10.3148252,2.97916667 C10.3148252,2.09458333 9.59500742,1.375 8.7101359,1.375 C7.82526438,1.375 7.10544661,2.09458333 7.10544661,2.97916667 L7.10544661,7.5625 L5.72999865,7.5625 L5.72999865,2.97916667 C5.72999865,1.3365 7.06693407,0 8.7101359,0 C10.3533377,0 11.6902732,1.3365 11.6902732,2.97916667 L11.6902732,7.5625 Z" id="Path" fill="#333333"></path>
                </g>
            </g>
        </g>
    </g>
</svg>