<?xml version="1.0" encoding="UTF-8"?>
<svg width="19px" height="22px" viewBox="0 0 19 22" version="1.1" xmlns="http://www.w3.org/2000/svg" xmlns:xlink="http://www.w3.org/1999/xlink">
    <title>exit</title>
    <g id="Desktop" stroke="none" stroke-width="1" fill="none" fill-rule="evenodd">
        <g id="KidX-Redesign-02" transform="translate(-1205.000000, -46.000000)" fill-rule="nonzero">
            <g id="Header" transform="translate(40.000000, 40.000000)">
                <g id="exit" transform="translate(1165.000000, 6.000000)">
                    <path d="M7.32515793,5.23809524 C7.32515793,3.19 8.71484504,1.48238095 10.5953177,0.963809524 C10.2175489,0.859047619 9.82826904,0.785714286 9.4180602,0.785714286 C6.96203939,0.785714286 4.97064288,2.77933333 4.97064288,5.23809524 C4.97064288,7.69685714 6.96203939,9.69047619 9.4180602,9.69047619 C9.82826904,9.69047619 10.2175489,9.61714286 10.5953177,9.51238095 C8.71484504,8.99380952 7.32515793,7.28619048 7.32515793,5.23809524 L7.32515793,5.23809524 Z" id="Path" fill="#D5DBE1"></path>
                    <path d="M7.32515793,13.3571429 L4.97064288,13.3571429 C2.65903233,13.3571429 0.78483835,15.2334286 0.78483835,17.547619 L0.78483835,21.2142857 L3.1393534,21.2142857 L3.1393534,17.547619 C3.1393534,15.2334286 5.01354738,13.3571429 7.32515793,13.3571429 Z" id="Path" fill="#D5DBE1"></path>
                    <path d="M9.4180602,10.4761905 C6.53299443,10.4761905 4.18580453,8.12638095 4.18580453,5.23809524 C4.18580453,2.34980952 6.53299443,0 9.4180602,0 C12.303126,0 14.6503159,2.34980952 14.6503159,5.23809524 C14.6503159,8.12638095 12.303126,10.4761905 9.4180602,10.4761905 Z M9.4180602,1.57142857 C7.39840951,1.57142857 5.75548123,3.21619048 5.75548123,5.23809524 C5.75548123,7.26 7.39840951,8.9047619 9.4180602,8.9047619 C11.4377109,8.9047619 13.0806392,7.26 13.0806392,5.23809524 C13.0806392,3.21619048 11.4377109,1.57142857 9.4180602,1.57142857 Z" id="Shape" fill="#333333"></path>
                    <path d="M18.0512821,22 L0.78483835,22 C0.351607581,22 0,21.648 0,21.2142857 L0,17.547619 C0,14.8039048 2.22998737,12.5714286 4.97064288,12.5714286 L13.8654775,12.5714286 C16.606133,12.5714286 18.8361204,14.8039048 18.8361204,17.547619 L18.8361204,21.2142857 C18.8361204,21.648 18.4845128,22 18.0512821,22 Z M1.5696767,20.4285714 L17.2664437,20.4285714 L17.2664437,17.547619 C17.2664437,15.6702857 15.7407179,14.1428571 13.8654775,14.1428571 L4.97064288,14.1428571 C3.09540245,14.1428571 1.5696767,15.6702857 1.5696767,17.547619 L1.5696767,20.4285714 Z" id="Shape" fill="#333333"></path>
                </g>
            </g>
        </g>
    </g>
</svg>