<?xml version="1.0" encoding="UTF-8"?>
<svg width="18px" height="18px" viewBox="0 0 18 18" version="1.1" xmlns="http://www.w3.org/2000/svg" xmlns:xlink="http://www.w3.org/1999/xlink">
    <title>box</title>
    <g id="Page-1" stroke="none" stroke-width="1" fill="none" fill-rule="evenodd">
        <g id="New-Header-V3-02" transform="translate(-1167.000000, -35.000000)" fill="#333333" fill-rule="nonzero">
            <g id="Header">
                <g id="Login" transform="translate(1147.000000, 30.000000)">
                    <g id="Group-4" transform="translate(0.000000, 5.000000)">
                        <g id="box" transform="translate(20.000000, 0.000000)">
                            <path d="M17.2084082,4.4490433 C17.2084082,4.4357567 17.2084082,4.42432577 17.2084082,4.41103918 C17.1975711,4.37351753 17.1829485,4.33725773 17.1646887,4.30274227 L17.1646887,4.29134845 C17.1427918,4.25364124 17.1166639,4.21856907 17.0867876,4.18683711 L17.0601773,4.16211959 C17.0366103,4.13970309 17.0111876,4.11936495 16.9841691,4.10132784 L16.965167,4.08611134 L16.9461649,4.08611134 L16.9195546,4.06900206 L8.86839588,0.0595670103 C8.70858557,-0.0198556701 8.52082887,-0.0198556701 8.36105567,0.0595670103 L5.64186804,1.41632165 L13.7462474,5.57016495 C13.753633,5.57532371 13.7606103,5.58103918 13.7671423,5.58727423 C13.7787588,5.59432577 13.7895959,5.60260206 13.7994309,5.61199175 C13.8136082,5.63129072 13.826301,5.65159175 13.8374351,5.67278351 C13.8388454,5.68603299 13.8388454,5.69943093 13.8374351,5.71268041 C13.838066,5.72155052 13.838066,5.73042062 13.8374351,5.73929072 L13.8374351,10.1477691 C13.8412948,10.2178392 13.8062227,10.2843093 13.7462103,10.3206804 L12.112033,11.1757732 C12.0193979,11.2250969 11.9043093,11.1899876 11.8549856,11.0973526 C11.8404371,11.07 11.8327546,11.0395299 11.8326804,11.0085402 L11.8326804,6.66656907 L3.62761237,2.43861031 L3.61050309,2.42721649 L0.323146392,4.05950103 L0.296536082,4.07661031 L0.277534021,4.07661031 L0.258531959,4.0918268 C0.231513402,4.10990103 0.206090722,4.13023918 0.182523711,4.15261856 L0.155913402,4.17733608 C0.126037113,4.20906804 0.0999092784,4.24414021 0.0780123711,4.28184742 L0.0780123711,4.29324124 C0.0597896907,4.3277567 0.0451298969,4.36405361 0.0342927835,4.40153814 C0.0342927835,4.41482474 0.0342927835,4.42625567 0.0342927835,4.43954227 C0.0270927835,4.47142268 0.0226391753,4.50382268 0.0210061856,4.53644536 C0.0210061856,4.53644536 0.0210061856,4.55166186 0.0210061856,4.56116289 L0.0210061856,13.4104082 C0.0213030928,13.6261856 0.143406186,13.8232948 0.33643299,13.9196784 L8.33630103,17.9215052 C8.45395052,17.9800701 8.58818969,17.9961773 8.71634227,17.9671175 L8.75056082,17.9538309 C8.78247835,17.9457773 8.81361649,17.9349773 8.84367835,17.9215423 L16.9005526,13.9311093 C17.0949526,13.8349485 17.2178722,13.6368371 17.2178722,13.4199464 L17.2178722,4.5706268 C17.2178722,4.5706268 17.2178722,4.55541031 17.2178722,4.54590928 C17.217501,4.51343505 17.2143093,4.48099794 17.2084082,4.4490433 Z" id="Path"></path>
                        </g>
                    </g>
                </g>
            </g>
        </g>
    </g>
</svg>